# xmcd CD database file
#
# Track frame offsets:
#	150
#	14525
#	32665
#	52579
#	64567
#	78596
#	98936
#	119648
#	133596
#	147383
#
# Disc length: 2145 seconds
#
# Revision: 0
# Processed by: cddbd v1.5.2PL0 Copyright (c) Steve Scherf et al.
# Submitted via: CDex 1.70beta2
#
DISCID=85085f0a
DTITLE=Cactus Jack - Pressure
DYEAR=2001
DGENRE=Country
TTITLE0=This Town
TTITLE1=Don't Count Hirn Out
TTITLE2=She Dreams Of Ontario
TTITLE3=Crazy Now And Then
TTITLE4=The Long Road
TTITLE5=Pedro's Land
TTITLE6=Billy Palmer
TTITLE7=Ill Be Fine On My Own
TTITLE8=My Skies Are Always Blue
TTITLE9=She Dreams Of Ontario (accustic)
EXTD=YEAR: 2001
EXTT0=
EXTT1=
EXTT2=
EXTT3=
EXTT4=
EXTT5=
EXTT6=
EXTT7=
EXTT8=
EXTT9=
PLAYORDER=
